
<svg width="200" height="60" viewBox="0 0 200 60" fill="none" xmlns="http://www.w3.org/2000/svg">
  <path d="M35 50.5C43.5604 50.5 50.5 43.5604 50.5 35C50.5 26.4396 43.5604 19.5 35 19.5C26.4396 19.5 19.5 26.4396 19.5 35C19.5 43.5604 26.4396 50.5 35 50.5Z" stroke="white" stroke-width="3"/>
  <path d="M35 15.5V9.5" stroke="white" stroke-width="3" stroke-linecap="round"/>
  <path d="M35 60.5V54.5" stroke="white" stroke-width="3" stroke-linecap="round"/>
  <path d="M15.9393 15.9393L11.6967 11.6967" stroke="white" stroke-width="3" stroke-linecap="round"/>
  <path d="M58.3033 58.3033L54.0607 54.0607" stroke="white" stroke-width="3" stroke-linecap="round"/>
  <path d="M9.5 35H15.5" stroke="white" stroke-width="3" stroke-linecap="round"/>
  <path d="M54.5 35H60.5" stroke="white" stroke-width="3" stroke-linecap="round"/>
  <path d="M15.9393 54.0607L11.6967 58.3033" stroke="white" stroke-width="3" stroke-linecap="round"/>
  <path d="M58.3033 11.6967L54.0607 15.9393" stroke="white" stroke-width="3" stroke-linecap="round"/>
  <path d="M35 44C39.9706 44 44 39.9706 44 35C44 30.0294 39.9706 26 35 26C30.0294 26 26 30.0294 26 35C26 39.9706 30.0294 44 35 44Z" fill="#E8A87C"/>
  <path d="M72.128 23.544H76.752V42H72.128V23.544ZM90.7699 32.88V42H86.3059V33.216C86.3059 32.256 86.1059 31.512 85.7059 30.984C85.3219 30.456 84.7539 30.192 84.0019 30.192C83.5219 30.192 83.0899 30.288 82.7059 30.48C82.3219 30.656 82.0099 30.936 81.7699 31.32C81.5299 31.688 81.4099 32.144 81.4099 32.688V42H76.9459V27.072H81.1619V29.328C81.5619 28.56 82.1539 27.96 82.9379 27.528C83.7379 27.096 84.6979 26.88 85.8179 26.88C87.0339 26.88 88.0259 27.184 88.7939 27.792C89.5779 28.4 90.1299 29.28 90.4499 30.432C90.6579 31.152 90.7699 31.984 90.7699 32.928V32.88ZM105.392 27.072V42H100.976V39.84C100.56 40.592 99.984 41.192 99.248 41.64C98.512 42.072 97.648 42.288 96.656 42.288C95.072 42.288 93.84 41.784 92.96 40.776C92.08 39.768 91.64 38.352 91.64 36.528V27.072H96.104V35.856C96.104 36.8 96.304 37.536 96.704 38.064C97.104 38.592 97.672 38.856 98.408 38.856C99.16 38.856 99.752 38.592 100.184 38.064C100.632 37.52 100.856 36.728 100.856 35.688V27.072H105.392ZM118.746 32.112C117.914 31.936 117.13 31.848 116.394 31.848C116.074 31.848 115.746 31.88 115.41 31.944C115.09 31.992 114.818 32.088 114.594 32.232C114.37 32.36 114.194 32.536 114.066 32.76C113.954 32.968 113.898 33.232 113.898 33.552C113.898 34.016 114.09 34.36 114.474 34.584C114.858 34.808 115.858 35.024 117.474 35.232C118.178 35.312 118.858 35.464 119.514 35.688C120.186 35.896 120.778 36.192 121.29 36.576C121.818 36.944 122.234 37.416 122.538 37.992C122.842 38.552 122.994 39.24 122.994 40.056C122.994 41.096 122.754 41.984 122.274 42.72C121.794 43.456 121.13 44.032 120.282 44.448C119.434 44.864 118.474 45.152 117.402 45.312C116.33 45.488 115.226 45.576 114.09 45.576C113.162 45.576 112.218 45.512 111.258 45.384C110.314 45.272 109.418 45.08 108.57 44.808L109.362 41.232C110.034 41.472 110.746 41.664 111.498 41.808C112.266 41.936 113.002 42 113.706 42C114.666 42 115.442 41.912 116.034 41.736C116.626 41.56 116.922 41.208 116.922 40.68C116.922 40.264 116.706 39.944 116.274 39.72C115.858 39.48 115.226 39.288 114.378 39.144L113.418 38.976C112.65 38.848 111.898 38.672 111.162 38.448C110.442 38.224 109.794 37.912 109.218 37.512C108.658 37.112 108.202 36.608 107.85 36C107.514 35.376 107.346 34.624 107.346 33.744C107.346 32.784 107.562 31.96 107.994 31.272C108.442 30.584 109.026 30.024 109.746 29.592C110.466 29.16 111.274 28.848 112.17 28.656C113.066 28.448 113.994 28.344 114.954 28.344C115.786 28.344 116.634 28.4 117.498 28.512C118.362 28.624 119.146 28.8 119.85 29.04L118.746 32.112ZM138.045 27.216V42H133.605V39.984C132.741 41.52 131.157 42.288 128.853 42.288C127.685 42.288 126.645 42.032 125.733 41.52C124.821 41.008 124.101 40.288 123.573 39.36C123.061 38.432 122.805 37.344 122.805 36.096C122.805 34.752 123.085 33.584 123.645 32.592C124.205 31.584 124.997 30.8 126.021 30.24C127.045 29.664 128.213 29.376 129.525 29.376C130.821 29.376 131.965 29.688 132.957 30.312V27.216H138.045ZM133.317 36.072C133.317 35.384 133.101 34.84 132.669 34.44C132.253 34.024 131.709 33.816 131.037 33.816C130.461 33.816 129.973 34.024 129.573 34.44C129.173 34.84 128.973 35.384 128.973 36.072C128.973 36.76 129.173 37.304 129.573 37.704C129.973 38.104 130.461 38.304 131.037 38.304C131.709 38.304 132.253 38.104 132.669 37.704C133.101 37.304 133.317 36.76 133.317 36.072ZM153.112 34.464C153.112 34.992 153.08 35.456 153.016 35.856H143.416C143.48 36.528 143.696 37.024 144.064 37.344C144.448 37.664 144.952 37.824 145.576 37.824C146.072 37.824 146.488 37.736 146.824 37.56C147.176 37.368 147.528 37.064 147.88 36.648L152.152 38.856C151.736 39.48 151.248 40.024 150.688 40.488C150.128 40.936 149.472 41.288 148.72 41.544C147.984 41.8 147.104 41.928 146.08 41.928C144.848 41.928 143.752 41.688 142.792 41.208C141.832 40.728 141.072 40.024 140.512 39.096C139.968 38.152 139.696 37.032 139.696 35.736C139.696 34.424 139.968 33.288 140.512 32.328C141.056 31.352 141.8 30.608 142.744 30.096C143.704 29.568 144.76 29.304 145.912 29.304C147.128 29.304 148.144 29.576 148.96 30.12C149.792 30.664 150.424 31.424 150.856 32.4C151.288 33.36 151.504 34.488 151.504 35.784V35.856H153.112V34.464ZM145.912 33.24C145.384 33.24 144.952 33.4 144.616 33.72C144.28 34.024 144.064 34.464 143.968 35.04H147.88C147.768 33.84 147.096 33.24 145.864 33.24H145.912ZM159.347 42.288C158.307 42.288 157.331 42.152 156.419 41.88C155.523 41.592 154.707 41.184 153.971 40.656L155.747 37.512C156.387 37.928 157.011 38.264 157.619 38.52C158.243 38.76 158.851 38.88 159.443 38.88C159.779 38.88 160.035 38.824 160.211 38.712C160.387 38.6 160.475 38.44 160.475 38.232C160.475 38.04 160.347 37.88 160.091 37.752C159.851 37.624 159.227 37.448 158.219 37.224C157.539 37.08 156.923 36.88 156.371 36.624C155.835 36.352 155.395 36.008 155.051 35.592C154.707 35.16 154.535 34.616 154.535 33.96C154.535 33.224 154.739 32.584 155.147 32.04C155.555 31.48 156.147 31.048 156.923 30.744C157.699 30.44 158.611 30.288 159.659 30.288C160.539 30.288 161.371 30.408 162.155 30.648C162.955 30.888 163.643 31.224 164.219 31.656L162.563 34.656C162.115 34.336 161.651 34.08 161.171 33.888C160.707 33.696 160.243 33.6 159.779 33.6C159.091 33.6 158.747 33.792 158.747 34.176C158.747 34.384 158.867 34.552 159.107 34.68C159.347 34.792 159.795 34.928 160.451 35.088C161.443 35.328 162.235 35.576 162.827 35.832C163.419 36.088 163.891 36.456 164.243 36.936C164.611 37.4 164.795 38.024 164.795 38.808C164.795 39.992 164.323 40.92 163.379 41.592C162.451 42.056 161.075 42.288 159.251 42.288H159.347ZM174.732 29.304C175.788 29.304 176.724 29.576 177.54 30.12C178.372 30.648 179.02 31.4 179.484 32.376C179.964 33.336 180.204 34.464 180.204 35.76C180.204 37.056 179.964 38.184 179.484 39.144C179.02 40.104 178.372 40.856 177.54 41.4C176.724 41.928 175.788 42.192 174.732 42.192C172.7 42.192 171.34 41.264 170.652 39.408V46.32H165.276V29.496H170.412V32.16C170.748 31.264 171.292 30.584 172.044 30.12C172.812 29.576 173.708 29.304 174.732 29.304ZM173.148 38.04C173.74 38.04 174.228 37.832 174.612 37.416C175.012 37 175.212 36.456 175.212 35.784C175.212 35.096 175.012 34.544 174.612 34.128C174.228 33.712 173.74 33.504 173.148 33.504C172.54 33.504 172.044 33.712 171.66 34.128C171.276 34.544 171.084 35.096 171.084 35.784C171.084 36.456 171.276 37 171.66 37.416C172.044 37.832 172.54 38.04 173.148 38.04Z" fill="white"/>
</svg>
